<svg xmlns="http://www.w3.org/2000/svg" version="1.0" width="1024" height="567" viewBox="-0.738 -0.738 47.08 26.069"><path d="M363.865 520.128a.785.785 0 0 0-.157.031c-.032.011-.076.004-.093.031-.023.037 0 .093 0 .125.001.013-.014.092 0 .125.022.062.031.154.125.25.033.037.309.198.343.22.084.048.214.148.375.25.102.063.416.203.5.25.112.06.593.358.625.374.033.016.478.323.5.344.022.021.167.146.188.156.021.011.342.24.375.25.032.011.087.036.125.031a5.22 5.22 0 0 0 .344-.093c.04-.018.312-.094.312-.094s.189-.059.313-.094c.203-.059.369-.077.406-.094.039-.016.111-.06.125-.125.005-.02.005-.086-.031-.125-.109-.12-.403-.27-.282-.187.094.062-.08-.066-.125-.094-.043-.026-.304-.196-.343-.219-.038-.02-.426-.257-.688-.375-.172-.077-.299-.12-.75-.312-.67-.284-1.056-.395-1.094-.406-.432-.115-.498-.114-.53-.125a2.665 2.665 0 0 0-.313-.063c-.083-.009-.183-.031-.25-.031zm5.343 2.469c-.496.04-.793.115-.843.125-.129.023-1.69.228-3.469 1.718-1.778 1.49-3 3.375-3 3.375l-.313.438s-.686.976-1.218 1.781c-.524.793-1.25 1.844-1.469 2.094-.485.556-1.188 1.115-1.844 1.219a13.78 13.78 0 0 1-1.625.156c-1.092.02-1.455.066-2.094.219-.566.135-.782.266-.875.312-.092.048-.282.143-.156.188 0 0 .406.128.813.312.507.228 1.023.508 1.781 1 1.545 1.003 2.615 2.71 2.875 3.156.174.3.249.344.281.344 0 0 .092-.337 0-1.094-.092-.756-.525-1.603-.812-2.062a4.778 4.778 0 0 0-1.125-1.219c-.189-.139-.445-.321-.563-.375l.75-.031s1.129-.11 1.688-.313c.51-.185 1.04-.498 1.312-.78.385-.397.924-1.117 1.813-2.5.89-1.387 2.005-2.87 3.093-3.938 1.112-1.09 2.444-1.59 3-1.782.412-.14 2.108-.396 2.563-.406.7-.015 1.757.103 2.031.156.551.11 1.301.402 1.563.5.857.325 1.772.955 2.125 1.25.307.257 1.281 1.072 1.656 1.5.369.42.398.53.375.657-.024.128-.185.07-.219.062-.037-.007-.262-.099-.812-.156-.902-.094-1.595-.128-2.125-.094-1.478.093-2.438.313-2.438.313s-1.148.178-1.406.375c-.168.127.062.156.062.156s.314-.014.532-.031c.58-.047 1.285-.033 2.062-.032.855 0 2.099.067 2.375.094.644.065 2.654.41 2.906.406.28-.002.555-.067.72-.28.088-.117.198-.45.062-.688-.094-.165-.198-.198-.625-.344-.273-.094-.383-.235-.438-.344a3.853 3.853 0 0 1-.187-.5c-.087-.322-.22-.896-.532-1.375-.423-.654-.636-.896-.937-1.187-.693-.67-1.875-1.25-1.875-1.25s-1.251-.745-3.375-1.032c-.848-.114-1.566-.134-2.063-.093z" style="fill:#182b65;fill-opacity:1;fill-rule:nonzero;stroke:#182b65;stroke-width:.01875;stroke-linecap:butt;stroke-linejoin:miter;stroke-miterlimit:4;stroke-dasharray:none;stroke-opacity:1" transform="translate(-352.198 -520.065)"/><path d="M362.99 538.347c-1.329 0-2.375.918-2.375 3.156 0 2.239 1.046 3.156 2.375 3.156 1.027 0 1.831-.576 2.156-1.344l-.594-.406c-.302.52-.842 1.031-1.469 1.031-.864 0-1.593-.605-1.593-2.312h3.593c.12-1.46-.373-3.281-2.093-3.281zm5.781 0c-.68 0-1.128.38-1.625.78v-.624h-.844v5.969h.844v-4.532c.335-.4 1.012-.906 1.531-.906.898 0 .782.905.781 1.531v3.907h.844v-4.125c0-1.557-.687-2-1.531-2zm-5.844.687c.887 0 1.304 1.108 1.281 1.875h-2.687c.01-.842.455-1.875 1.406-1.875z" style="fill:#d0990b;fill-opacity:1;fill-rule:nonzero;stroke:none" transform="translate(-352.198 -520.065)"/><path d="M373.833 538.347c-1.33 0-2.375.918-2.375 3.156 0 2.239 1.045 3.156 2.375 3.156s2.407-.917 2.407-3.156c0-2.238-1.077-3.156-2.407-3.156zm5.782 0c-1.33 0-2.375.918-2.375 3.156 0 2.239 1.045 3.156 2.375 3.156.962 0 1.716-.716 2.062-1.625l-.656-.312c-.26.583-.681 1.186-1.406 1.218-1.298 0-1.532-1.42-1.532-2.437 0-1.016.234-2.469 1.532-2.469.67-.021.982.574 1.187 1.125l.719-.312c-.325-.898-.922-1.5-1.906-1.5zm5.468 0c-1.33 0-2.406.918-2.406 3.156 0 2.239 1.076 3.156 2.406 3.156 1.027 0 1.833-.576 2.157-1.344l-.625-.406c-.303.52-.812 1.031-1.438 1.031-.865 0-1.594-.605-1.594-2.312h3.594c.119-1.46-.375-3.281-2.094-3.281zm5.407 0c-.909 0-1.565.473-2.063 1.187l.594.469c.346-.508.809-.969 1.469-.969.67 0 1.125.381 1.125 1.063v.343l-.282.063c-1.32.357-3.093.73-3.093 2.437 0 .942.737 1.72 1.656 1.72.702 0 1.232-.462 1.719-.938l.093.75h.907c-.173-.422-.145-.87-.157-1.313v-2.969c0-1.362-1.158-1.843-1.968-1.843zm5.781 0c-.681 0-1.159.38-1.656.78v-.624h-.844v5.969h.844v-4.532c.335-.4 1.012-.906 1.531-.906.897 0 .812.905.812 1.531v3.907h.844v-4.125c0-1.557-.689-2-1.531-2zm-22.438.687c1.298 0 1.563 1.453 1.563 2.469 0 1.016-.265 2.437-1.563 2.437-1.297 0-1.53-1.42-1.53-2.437 0-1.016.233-2.469 1.53-2.469zm11.188 0c.886 0 1.271 1.108 1.25 1.875h-2.688c.01-.842.487-1.875 1.438-1.875zm6.594 2.094v1.75c-.411.509-1.018.969-1.688.969-.509 0-.906-.503-.906-1 0-1.07 1.45-1.388 2.25-1.625l.344-.094z" style="fill:#182b65;fill-opacity:1;fill-rule:nonzero;stroke:none" transform="translate(-352.198 -520.065)"/></svg>