<svg version="1.0" xmlns="http://www.w3.org/2000/svg" width="341.333" height="341.333" viewBox="0 0 256 256"><path d="M122.5 51.4c-4 1.8-101.8 83.3-102.7 85.6-.7 1.9.9 4.5 6.4 10.5 1.5 1.6 2.8 3.3 2.8 3.7 0 .5 1.2.8 2.8.8 1.9 0 4.9-1.9 10.2-6.4l7.5-6.4.6 8.1c.3 4.5.6 22.2.7 39.3 0 27.2.2 31.5 1.7 33.7.9 1.4 2.6 2.8 3.8 3.1 1.2.3 34.2.6 73.4.6h71.2l2.8-2.4 2.8-2.4.5-40.1.5-40.1 8 6.5c4.4 3.6 9 6.5 10.2 6.5 2.7 0 12.3-11.2 12.3-14.3-.1-1.4-1.8-3.6-4.8-5.9-2.6-2.1-5.9-4.8-7.3-6-1.5-1.3-6.3-5.2-10.8-8.8l-8-6.5L207 82c0-15.7-.4-29.2-.9-30-.8-1.1-4-1.4-15.3-1.6-19.8-.2-18.8-1-18.8 16.7v14l-16.7-14.2c-9.3-7.7-18.2-14.7-20-15.5-4-1.7-8.9-1.7-12.8 0zm-19.8 63c2.6 2.2 2.7 2.9 2.7 10.4 0 5.7-.5 8.6-1.7 10.5-3.3 5-12.7 4.4-14.8-1-2.8-7-.3-20.5 3.9-21.6 4.1-1.1 7.3-.5 9.9 1.7zm47.5 4 3.1 6.4 2.9-6.1c3.5-7.3 3.3-7.1 5.2-6.4 1.2.5.7 2.1-2.5 8.3-3.1 6.2-3.9 8.9-3.9 13.2 0 4.6-.3 5.3-1.7 5-1.4-.3-1.8-1.4-1.9-5.8-.1-4.2-1-7.2-3.8-12.5-4.1-7.9-4.2-8.5-2.1-8.5.9 0 2.9 2.8 4.7 6.4zm11.8 29.7c13.1 6.1 19.9 16.4 20.2 30.4.2 12.9-6.6 24-18.7 30.4l-5 2.6h-58l-5.6-2.8c-6.6-3.2-13.2-9.9-16.2-16.5-1.7-3.7-2.2-6.6-2.2-13.7 0-8.4.2-9.4 3.5-15.4 4.1-7.6 11.2-13.4 19.7-16.1 5.1-1.6 9-1.8 31.3-1.7 25.1.2 25.6.3 31 2.8z"/><path d="M92.6 117.8c-1.8 3.4-1.6 14.3.3 16.6 2 2.4 5.8 2 7.6-.8 2.1-3.2 2.2-12.9.1-16.1-2.3-3.5-6.1-3.3-8 .3zM144 153c-18.1 3.3-27.1 25.1-16.7 40.5 2.8 4.1 5.4 6.2 11.2 9.1 16.7 8.1 37-5 36.7-23.7C175 162 160.6 150 144 153z"/></svg>