<svg xmlns="http://www.w3.org/2000/svg" version="1.1" width="1024" height="278" viewBox="-1.161 -1.161 151.14 41.029" id="svg3317"><path d="M130.837 27.991c.203.443.306.92.306 1.424 0 2.647-1.471 3.786-2.188 4.384-1.792 1.483-4.35 1.377-4.377 1.377h-1.39c-.873 0-1.848.724-1.848 1.758 0 1.103.74 1.77 1.979 1.77h1.264c.071 0 1.849.072 3.759-.538 1.93-.616 4.595-2.063 6.433-5.461.444-.806 4.237-9.357 7.002-15.594l2.112-4.736c.124-.291.135-.579.058-.841-.09-.294-.312-.539-.63-.709-.547-.283-1.304-.3-2.054-.063-.77.247-1.416.755-1.668 1.322-.023.074-3.156 6.841-3.383 7.31-.613 1.221-1.35 1.931-2.027 1.931-.796 0-1.29-.098-2.432-2.04-.085-.153-3.513-6.198-4.06-7.144-.313-.596-.976-1.104-1.786-1.361-.812-.255-1.65-.244-2.237.062-.347.184-.592.454-.69.772-.087.283-.065.6.068.918.026.062 7.351 14.544 7.789 15.46m-19.515-8.765c.037-1.243 1.043-2.206 2.298-2.206h-.002.043-.048 2.932c.95 0 1.707-.277 2.246-.826.852-.85.884-2.098.884-2.333 0-.322-.044-1.375-.813-2.145-.531-.532-1.287-.81-2.247-.81h-2.975c-2.02 0-2.02-.466-2.02-1.687 0-.028.06-2.511 2.05-3.214.63-.232 1.337-.341 2.087-.345h3.585a2.851 2.851 0 0 0 2.839-2.83A2.842 2.842 0 0 0 119.342 0l-3.421.01c-.47 0-.979.03-1.505.084-1.603.172-3.035.54-4.28 1.09-5.241 2.322-5.486 7.065-5.486 7.116l-.005.074c-.262 1.641-.69 2.532-2.248 2.532-.774 0-1.399.243-1.852.741-.802.854-.774 2.178-.774 2.195v-.017c0 2.694 2.547 3.196 2.587 3.201 1.202.099 2.11 1.074 2.11 2.258 0 .058-.016 6.12-.016 9.316 0 1.125.309 1.995.895 2.59a2.767 2.767 0 0 0 1.809.781h1.366c.081 0 .833-.014 1.536-.505.575-.387 1.264-1.204 1.264-2.835M63.155 13.262s-.135-2.648 2.698-2.648c1.62 0 2.641 1.468 4.546 1.468 2.435 0 3.08-1.468 6.381-1.468 3.772 0 3.985 1.468 6.314 1.468 2.461 0 2.903-1.468 7.241-1.468 2.302 0 4.84 1.34 4.84 4.227 0 3.936.01 14.348.01 14.415a2.708 2.708 0 0 1-2.706 2.701 2.708 2.708 0 0 1-2.699-2.7V17.443c0-1.315.018-3.953-2.29-4.008 0 0-5.628-.775-5.628 9.075l.009 6.745a2.71 2.71 0 0 1-2.703 2.701 2.703 2.703 0 0 1-2.7-2.62V17.44c0-.86.151-4.004-2.33-4.004-4.79 0-5.582 4.896-5.582 8.915v6.905a2.71 2.71 0 0 1-2.703 2.701 2.699 2.699 0 0 1-2.697-2.62M41.348 4.58c-9.187 0-16.621 7.439-16.621 16.626 0 9.179 7.434 16.625 16.621 16.625 9.186 0 16.629-7.446 16.629-16.625 0-9.187-7.443-16.626-16.629-16.626m0 22.564c-3.264 0-5.941-2.664-5.941-5.938 0-3.281 2.677-5.942 5.941-5.942a5.945 5.945 0 0 1 5.939 5.942 5.946 5.946 0 0 1-5.939 5.938M5.573 22.015c.038.011 1.275.515 2.589 1.052l4.02 1.633c.952.371 1.444 1.376 1.172 2.396-.327 1.278-1.855 2.486-5.132 2.046-1.304-.176-4.335-.825-4.369-.833l.024.009c-.073-.024-1.898-.684-3.028-.08-.4.22-.662.56-.782 1.035-.426 1.702 1.326 2.293 1.339 2.302.626.223 1.32.384 1.878.498l.467.123c.036.004 4.015.948 7.167.905 2.075-.028 7.11-.5 9.08-4.115.291-.527.695-2.387.493-3.565-.237-1.367-.647-2.727-3.015-4.26-.6-.383-2.467-1.006-4.122-1.555-.868-.28-1.703-.558-2.136-.735-2.902-1.168-3.419-2.232-3.467-2.765-.035-.307.063-1.01.618-1.64.698-.75 1.857-1.142 3.445-1.142 2.393 0 3.318.281 4.305.57.184.065.373.125.577.176.747.195 1.338.168 1.758-.089.5-.315.603-.842.644-1.027.059-.328.135-1.428-1.606-2.129-.14-.056-3.698-1.439-9.299-.662-.786.105-2.327.408-3.772 1.218-2.12 1.162-3.22 2.98-3.182 5.233.028 1.631.788 3.07 2.204 4.191 1.056.836 2.095 1.198 2.14 1.21" id="path3092" style="fill:#ffb514;fill-opacity:1;fill-rule:nonzero;stroke:none"/><path d="M145.634 31.824c-1.87 0-3.132-1.348-3.132-3.154 0-1.811 1.277-3.179 3.147-3.179 1.809 0 3.169 1.368 3.169 3.179 0 1.806-1.379 3.154-3.184 3.154m0-5.595c-1.341 0-2.307 1.06-2.307 2.441 0 1.366.966 2.428 2.307 2.428 1.338 0 2.308-1.062 2.308-2.428 0-1.381-.97-2.441-2.308-2.441m.519 3.97c-.434-.765-.681-1.242-.793-1.242h-.078V30.2h-.693v-3.154h1.049c.699 0 1.077.366 1.077.855 0 .518-.436.775-.715.868v.005c.153 0 .585.735.97 1.426h-.817zm-.756-2.615h-.115v.834h.102c.329 0 .589-.124.589-.454 0-.3-.205-.38-.576-.38" id="path3096" style="fill:#ffb514;fill-opacity:1;fill-rule:nonzero;stroke:none"/></svg>