<svg id="bb535a4d-a035-40f6-99ac-869b240e0289" data-name="Layer 1" xmlns="http://www.w3.org/2000/svg" width="995" height="697.681"><path d="M915.189 538.707H274.35a16.519 16.519 0 0 1-16.5-16.5V127.054a12.102 12.102 0 0 1 12.088-12.089h649.453a12.311 12.311 0 0 1 12.298 12.298v394.944a16.519 16.519 0 0 1-16.5 16.5Z" transform="translate(-102.5 -101.16)" fill="#f2f2f2"/><path d="M891.811 515.34H294.567c-8.755 0-15.878-6.67-15.878-14.868V156.367c0-6.08 5.278-11.027 11.766-11.027h605.273c6.596 0 11.961 5.029 11.961 11.209v343.923c0 8.199-7.123 14.869-15.878 14.869Z" transform="translate(-102.5 -101.16)" fill="#fff"/><path d="M931.459 126.11h-673.84v-8.4a16.574 16.574 0 0 1 16.56-16.55h640.72a16.574 16.574 0 0 1 16.56 16.55Z" transform="translate(-102.5 -101.16)" fill="#ccc"/><circle cx="185.214" cy="12.5" r="4.283" fill="#fff"/><circle cx="201.473" cy="12.5" r="4.283" fill="#fff"/><circle cx="217.731" cy="12.5" r="4.283" fill="#fff"/><path d="M826.073 457.629H363.234a17.52 17.52 0 0 1-17.5-17.5V216.975a13.103 13.103 0 0 1 13.088-13.089h471.454a13.312 13.312 0 0 1 13.297 13.298v222.945a17.52 17.52 0 0 1-17.5 17.5Zm-467.25-251.743a11.1 11.1 0 0 0-11.089 11.089v223.154a15.517 15.517 0 0 0 15.5 15.5h462.839a15.518 15.518 0 0 0 15.5-15.5V217.184a11.31 11.31 0 0 0-11.297-11.298Z" transform="translate(-102.5 -101.16)" fill="#ccc"/><path d="M379.234 440.129h430.839a16 16 0 0 0 16-16V237.58a16 16 0 0 0-16-16H379.234a16 16 0 0 0-16 16v186.548a16 16 0 0 0 16 16Z" transform="translate(-102.5 -101.16)" fill="#f2f2f2"/><circle cx="325.654" cy="165.695" r="9" fill="#ccc"/><circle cx="325.654" cy="199.695" r="9" fill="#ccc"/><circle cx="325.654" cy="233.695" r="9" fill="#ccc"/><circle cx="325.654" cy="267.695" r="9" fill="#ccc"/><path d="M769.154 267.855h-296a1 1 0 0 1 0-2h296a1 1 0 0 1 0 2ZM769.154 301.855h-296a1 1 0 0 1 0-2h296a1 1 0 0 1 0 2ZM769.154 335.855h-296a1 1 0 0 1 0-2h296a1 1 0 0 1 0 2ZM769.154 369.855h-296a1 1 0 0 1 0-2h296a1 1 0 0 1 0 2Z" transform="translate(-102.5 -101.16)" fill="#ccc"/><path d="M529.154 403.855h-29a5.006 5.006 0 0 1-5-5v-27a5.006 5.006 0 0 1 5-5h29a5.006 5.006 0 0 1 5 5v27a5.006 5.006 0 0 1-5 5ZM594.154 403.855h-29a5.006 5.006 0 0 1-5-5v-61a5.006 5.006 0 0 1 5-5h29a5.006 5.006 0 0 1 5 5v61a5.006 5.006 0 0 1-5 5ZM660.154 403.855h-29a5.006 5.006 0 0 1-5-5v-95a5.006 5.006 0 0 1 5-5h29a5.006 5.006 0 0 1 5 5v95a5.006 5.006 0 0 1-5 5ZM728.154 403.855h-29a5.006 5.006 0 0 1-5-5v-128a5.006 5.006 0 0 1 5-5h29a5.006 5.006 0 0 1 5 5v128a5.006 5.006 0 0 1-5 5Z" transform="translate(-102.5 -101.16)" fill="#428bca"/><path d="M769.154 403.855h-296a1 1 0 0 1 0-2h296a1 1 0 0 1 0 2Z" transform="translate(-102.5 -101.16)" fill="#3f3d56"/><path d="M899.201 590.402a10.056 10.056 0 0 1 15.32-1.743l31.756-16.389-1.975 18.465-29.852 12.732a10.11 10.11 0 0 1-15.249-13.065Z" transform="translate(-102.5 -101.16)" fill="#ffb8b8"/><path d="M926.524 597.289a4.506 4.506 0 0 1-1.523-2.212l-2.526-8.16a4.515 4.515 0 0 1 1.587-4.92l25.737-19.44 27.876-51.713a14.497 14.497 0 1 1 22.9 17.781l-15.859 33.47a46.374 46.374 0 0 1-23.463 22.697l-30.163 13.083a4.505 4.505 0 0 1-3.669-.04 4.455 4.455 0 0 1-.897-.546Z" transform="translate(-102.5 -101.16)" fill="#3f3d56"/><circle cx="898.775" cy="363.541" r="24.561" fill="#ffb8b8"/><path fill="#ffb8b8" d="m888.812 685.737-12.259-.001-5.831-47.288 18.095.001-.005 47.288z"/><path d="M867.795 682.233h23.644v14.887h-38.53a14.887 14.887 0 0 1 14.886-14.887Z" fill="#2f2e41"/><path fill="#ffb8b8" d="m928.812 685.739-12.259-.001-5.831-47.289 18.095.002-.005 47.288z"/><path d="M907.795 682.235h23.644v14.886h-38.53a14.887 14.887 0 0 1 14.886-14.886Z" fill="#2f2e41"/><path d="M1032.208 774.899h-14.367a4.508 4.508 0 0 1-4.345-3.33l-20.68-76.701a.5.5 0 0 0-.981.16l4.177 72.742a4.5 4.5 0 0 1-4.866 4.742l-16.148-1.346a4.512 4.512 0 0 1-4.096-3.964l-14.71-152.745 5.69 3.415 53.33-9.054 21.457 160.986a4.5 4.5 0 0 1-4.46 5.095Z" transform="translate(-102.5 -101.16)" fill="#2f2e41"/><path d="M974.027 630.579a32.94 32.94 0 0 1-16.692-4.698 4.48 4.48 0 0 1-2.136-4.59c1.875-11.485 11.684-70.407 20.608-102.528 3.635-13.083 11.671-20.13 23.887-20.944 17.868-1.172 33.75 12.808 35.403 31.2 2.918 32.449-8.933 78.55-14.163 96.866a4.496 4.496 0 0 1-7.088 2.306l-10.661-8.293a3.533 3.533 0 0 0-4.516.188c-8.987 8.015-17.523 10.493-24.642 10.493Z" transform="translate(-102.5 -101.16)" fill="#3f3d56"/><path opacity=".2" d="m906.787 443.738 8.999 38.001-13.002 31.999 9.002-30.999-4.999-39.001z"/><path d="M1015.29 484.898a16.538 16.538 0 0 0 6.388-1.155c.894-.345 1.822-.628 2.715-.973 7.882-3.044 13.074-11.438 13.26-19.886s-4.188-16.646-10.683-22.05-14.91-8.178-23.335-8.82c-9.075-.691-19.294 1.61-24.366 9.167-1.35 2.012-2.294 4.453-1.494 6.882a4.404 4.404 0 0 0 1.24 1.906c2.265 2.015 4.523.5 6.832.366 3.173-.184 6.023 2.385 7.047 5.394s.574 6.322-.254 9.39a23.459 23.459 0 0 0-1.182 5.71 5.74 5.74 0 0 0 2.378 5.055c1.983 1.2 4.587.506 6.571-.691s3.698-2.86 5.842-3.74 5.022-.686 6.27 1.267a6.935 6.935 0 0 1 .792 2.288c1.118 5.095.861 4.795 1.98 9.89Z" transform="translate(-102.5 -101.16)" fill="#2f2e41"/><path d="m977.221 752.591-153.796-53.56a10.556 10.556 0 0 1-6.49-13.426l39.966-114.759a7.734 7.734 0 0 1 9.836-4.755l158.995 55.372a7.867 7.867 0 0 1 4.837 10.006L990.647 746.1a10.556 10.556 0 0 1-13.426 6.49Z" transform="translate(-102.5 -101.16)" fill="#e6e6e6"/><path d="m836.55 692.435 134.483 46.836a10.225 10.225 0 0 0 13.019-6.294l32.272-92.666a10.225 10.225 0 0 0-6.293-13.02l-134.484-46.834a10.225 10.225 0 0 0-13.019 6.293l-32.272 92.667a10.225 10.225 0 0 0 6.293 13.018Z" transform="translate(-102.5 -101.16)" fill="#fff"/><path d="m870.32 627.329-6.66-2.32a1.444 1.444 0 0 1-.888-1.836l2.32-6.66a1.444 1.444 0 0 1 1.836-.889l6.66 2.32a1.444 1.444 0 0 1 .888 1.837l-2.32 6.66a1.444 1.444 0 0 1-1.836.888Z" transform="translate(-102.5 -101.16)" fill="#428bca"/><path d="m864.31 644.585-6.66-2.32a1.444 1.444 0 0 1-.888-1.836l2.32-6.66a1.444 1.444 0 0 1 1.836-.888l6.66 2.32a1.444 1.444 0 0 1 .889 1.836l-2.32 6.66a1.444 1.444 0 0 1-1.837.888Z" transform="translate(-102.5 -101.16)" fill="#3f3d56"/><path d="m858.3 661.841-6.66-2.32a1.444 1.444 0 0 1-.887-1.836l2.32-6.66a1.444 1.444 0 0 1 1.836-.888l6.66 2.32a1.444 1.444 0 0 1 .888 1.836l-2.32 6.66a1.444 1.444 0 0 1-1.836.888ZM915.074 639.18l-32.09-11.175a1.443 1.443 0 1 1 .949-2.725l32.09 11.176a1.443 1.443 0 1 1-.949 2.725ZM909.065 656.437l-32.09-11.176a1.443 1.443 0 0 1 .948-2.724l32.09 11.175a1.443 1.443 0 1 1-.948 2.725ZM903.055 673.693l-32.09-11.176a1.443 1.443 0 0 1 .948-2.724l32.09 11.176a1.443 1.443 0 0 1-.948 2.724Z" transform="translate(-102.5 -101.16)" fill="#ccc"/><path d="M988.454 683.043c.233-.561.454-1.131.656-1.712a30.239 30.239 0 0 0-18.611-38.502l-10.548 30.287Z" transform="translate(-102.5 -101.16)" fill="#428bca"/><path d="m956.884 674.959 10.547-30.287a30.239 30.239 0 1 0 17.955 40.213Z" transform="translate(-102.5 -101.16)" fill="#3f3d56"/><path d="M994.645 631.512a10.056 10.056 0 0 1 10.98-10.826l14.873-32.493 9.84 15.748-15.632 28.441a10.11 10.11 0 0 1-20.061-.87Z" transform="translate(-102.5 -101.16)" fill="#ffb8b8"/><path d="M1020.394 620.07a4.506 4.506 0 0 1-2.563-.8l-7.023-4.862a4.515 4.515 0 0 1-1.788-4.852l8.255-31.18-9.98-57.893a14.497 14.497 0 1 1 28.994-.14l8.176 36.123a46.373 46.373 0 0 1-4.455 32.339l-15.661 28.908a4.505 4.505 0 0 1-2.911 2.233 4.455 4.455 0 0 1-1.044.123Z" transform="translate(-102.5 -101.16)" fill="#3f3d56"/><path d="M1096.5 798.84h-190a1 1 0 0 1 0-2h190a1 1 0 0 1 0 2Z" transform="translate(-102.5 -101.16)" fill="#ccc"/><path fill="#a0616a" d="m490.541 685.239 12.26-.001 5.832-47.287h-18.094l.002 47.288z"/><path d="m589.914 782.396 24.144-.001a15.386 15.386 0 0 1 15.387 15.386v.5l-39.53.002Z" transform="translate(-102.5 -101.16)" fill="#2f2e41"/><path fill="#a0616a" d="m441.541 685.239 12.26-.001 5.832-47.287h-18.094l.002 47.288z"/><path d="m540.914 782.396 24.144-.001a15.386 15.386 0 0 1 15.387 15.386v.5l-39.53.002Z" transform="translate(-102.5 -101.16)" fill="#2f2e41"/><circle cx="492.988" cy="333.297" r="24.561" fill="#a0616a"/><path d="M612.005 776.192h-22.751a4.5 4.5 0 0 1-4.5-4.554l1.322-108.032a1.5 1.5 0 0 0-2.989-.2l-13.24 108.83a4.504 4.504 0 0 1-4.467 3.956h-22.97a4.5 4.5 0 0 1-4.486-4.85l15.168-194.075.412-.045 72.629-7.844-9.633 202.528a4.495 4.495 0 0 1-4.495 4.286Z" transform="translate(-102.5 -101.16)" fill="#2f2e41"/><path d="M553.976 589.18a4.496 4.496 0 0 1-4.484-4.358c-.397-12.271-1.076-54.732 6.822-85.905a40.924 40.924 0 0 1 37.792-30.839 41.18 41.18 0 0 1 40.559 26.024c13.275 33.703 25.818 75.246 10.18 81.761-20.494 8.54-74.523 12.346-90.593 13.309q-.14.009-.276.009Z" transform="translate(-102.5 -101.16)" fill="#3f3d56"/><path d="M647.847 409.632a10.525 10.525 0 0 0 1.246 1.094l-2.578 49.526-10.725 5.49 6.171 17.268 19.93-7.875a8 8 0 0 0 5.026-8.18l-5.222-56.18a10.497 10.497 0 1 0-13.848-1.143Z" transform="translate(-102.5 -101.16)" fill="#a0616a"/><path d="m646.718 462.095 7.544 21.44a4.5 4.5 0 0 1-3.389 5.91l-22.245 4.309a12.497 12.497 0 0 1-8.228-23.602l19.974-10.543a4.5 4.5 0 0 1 6.344 2.486Z" transform="translate(-102.5 -101.16)" fill="#3f3d56"/><path d="M541.46 409.632a10.527 10.527 0 0 1-1.246 1.094l2.579 49.526 10.724 5.49-6.171 17.268-19.93-7.875a8 8 0 0 1-5.026-8.18l5.222-56.18a10.497 10.497 0 1 1 13.848-1.143Z" transform="translate(-102.5 -101.16)" fill="#a0616a"/><path d="M545.192 459.4a4.495 4.495 0 0 1 3.741.209l19.974 10.543a12.497 12.497 0 0 1-8.228 23.602l-22.245-4.308a4.5 4.5 0 0 1-3.39-5.912l7.545-21.439a4.495 4.495 0 0 1 2.603-2.696Z" transform="translate(-102.5 -101.16)" fill="#3f3d56"/><path d="M605.027 438.643a16.143 16.143 0 0 1 9.041-15.168c7.466-3.854 12.156-12.075 10.1-19.582-2.63-9.609-15.708-15.84-26.304-12.534a48.566 48.566 0 0 0-8.261 3.839l-6.923 3.71a71.73 71.73 0 0 0-8.534 5.039 28.315 28.315 0 0 0-11.27 26.53c1.363 9.768 7.76 18.727 16.517 24.86a27.937 27.937 0 0 0 11.319 5.032c4.197.692 8.87-.095 11.94-2.705 4.796-4.08 4.3-10.91 2.749-16.616a12.09 12.09 0 0 1-.374-2.405Z" transform="translate(-102.5 -101.16)" fill="#2f2e41"/><path d="M688.5 798.84h-190a1 1 0 0 1 0-2h190a1 1 0 0 1 0 2Z" transform="translate(-102.5 -101.16)" fill="#ccc"/><path d="M378.41 616.413 221.633 680.73a10.984 10.984 0 0 1-14.316-5.986L159.325 557.76a8.047 8.047 0 0 1 4.386-10.488l162.077-66.491a8.186 8.186 0 0 1 10.669 4.461l47.94 116.855a10.984 10.984 0 0 1-5.987 14.315Z" transform="translate(-102.5 -101.16)" fill="#e6e6e6"/><path d="m227.311 666.541 137.091-56.24a10.64 10.64 0 0 0 5.805-13.882l-38.753-94.463a10.64 10.64 0 0 0-13.881-5.805l-137.091 56.24a10.64 10.64 0 0 0-5.805 13.882l38.753 94.463a10.64 10.64 0 0 0 13.881 5.805Z" transform="translate(-102.5 -101.16)" fill="#fff"/><path transform="rotate(-22.306 21.954 737.672)" fill="#e6e6e6" d="M328.668 528.117h2.179v.363h-2.179z"/><path d="m324.747 530.55-4.072 1.671-.137-.336 4.071-1.67Zm-8.143 3.342-4.072 1.67-.138-.336 4.072-1.67Zm-8.144 3.34-4.072 1.67-.137-.335 4.071-1.67Zm-8.143 3.341-4.072 1.67-.138-.335 4.072-1.67Zm-8.144 3.341-4.072 1.67-.137-.335 4.071-1.67Zm-8.143 3.34-4.072 1.671-.138-.336 4.072-1.67Zm-8.144 3.342-4.072 1.67-.137-.336 4.071-1.67Zm-8.143 3.34-4.072 1.671-.138-.336 4.072-1.67Zm-8.144 3.341-4.072 1.67-.137-.335 4.071-1.67Zm-8.143 3.341-4.072 1.67-.138-.335 4.072-1.67Zm-8.144 3.341-4.072 1.67-.138-.335 4.072-1.67Zm-8.144 3.341-4.071 1.67-.138-.335 4.072-1.67Zm-8.143 3.34-4.072 1.671-.138-.336 4.072-1.67Zm-8.144 3.342-4.071 1.67-.138-.336 4.072-1.67Zm-8.143 3.34-4.072 1.671-.138-.336 4.072-1.67Zm-8.144 3.341-4.071 1.67-.138-.335 4.072-1.67Z" transform="translate(-102.5 -101.16)" fill="#e6e6e6"/><path transform="rotate(-22.306 -114.43 793.623)" fill="#e6e6e6" d="M192.285 584.068h2.179v.363h-2.179z"/><path transform="rotate(-22.306 -31.406 796.061)" fill="#e6e6e6" d="M275.309 586.506h2.179v.363h-2.179z"/><path d="m271.448 588.915-4.012 1.646-.137-.336 4.01-1.646Zm-8.023 3.291-4.011 1.646-.138-.336 4.011-1.646Zm-8.022 3.291-4.012 1.646-.138-.336 4.012-1.645Zm-8.023 3.292-4.011 1.645-.138-.336 4.011-1.645Zm-8.023 3.291-4.01 1.646-.139-.336 4.012-1.646Zm-8.022 3.291-4.011 1.646-.138-.336 4.011-1.646Zm-8.023 3.291-4.011 1.646-.138-.336 4.012-1.645Zm-8.022 3.292-4.011 1.645-.138-.336 4.011-1.645Z" transform="translate(-102.5 -101.16)" fill="#e6e6e6"/><path transform="rotate(-22.306 -101.613 824.864)" fill="#e6e6e6" d="M205.101 615.309h2.179v.363h-2.179z"/><path transform="rotate(-22.306 -64.645 826.966)" fill="#e6e6e6" d="M242.07 617.411h2.179v.363h-2.179z"/><path d="m238.093 619.867-4.127 1.693-.138-.336 4.127-1.693Zm-8.254 3.386-4.127 1.693-.138-.336 4.127-1.693Zm-8.254 3.386-4.127 1.693-.138-.336 4.127-1.693Z" transform="translate(-102.5 -101.16)" fill="#e6e6e6"/><path transform="rotate(-22.306 -95.55 839.644)" fill="#e6e6e6" d="M211.165 630.089h2.179v.363h-2.179z"/><path transform="rotate(-22.306 -54.297 852.189)" fill="#e6e6e6" d="M252.417 642.634h2.179v.363h-2.179z"/><path d="m248.44 645.09-4.126 1.693-.138-.336 4.127-1.693Zm-8.253 3.386-4.127 1.693-.138-.336 4.127-1.693Zm-8.254 3.386-4.127 1.693-.138-.335 4.127-1.694Z" transform="translate(-102.5 -101.16)" fill="#e6e6e6"/><path transform="rotate(-22.306 -85.201 864.867)" fill="#e6e6e6" d="M221.513 655.313h2.179v.363h-2.179z"/><path d="m233.132 651.671 116.175-47.66a11.48 11.48 0 0 0 6.258-14.963l-23.473-57.216-.227.101-28.51 68.167-21.144-8.84a2.742 2.742 0 0 0-2.435.152 2.922 2.922 0 0 0-1.212 1.433l-14.942 35.722-15.46-6.462a2.753 2.753 0 0 0-3.602 1.478c-.1.242-9.632 23.63-11.428 28.088Z" transform="translate(-102.5 -101.16)" fill="#428bca"/><path d="m232.775 652.21-.335-.14 11.954-28.586a3.09 3.09 0 0 1 4.038-1.657l15.155 6.338 14.856-35.525a3.09 3.09 0 0 1 4.038-1.657l20.84 8.715 28.655-68.523.335.14-28.796 68.858-21.174-8.855a2.723 2.723 0 0 0-3.563 1.462l-14.996 35.86-15.49-6.478a2.726 2.726 0 0 0-3.563 1.462Z" transform="translate(-102.5 -101.16)" fill="#3f3d56"/><circle cx="141.667" cy="516.019" r="2.542" fill="#3f3d56"/><circle cx="174.906" cy="485.115" r="2.542" fill="#3f3d56"/><circle cx="226.662" cy="426.636" r="2.542" fill="#3f3d56"/><path d="M186.901 614.295a10.095 10.095 0 0 0 3.61-15.053l7.549-73.804h-16.314l-5.999 72.066a10.15 10.15 0 0 0 11.154 16.79Z" transform="translate(-102.5 -101.16)" fill="#ffb8b8"/><circle cx="99.38" cy="360.468" r="23.08" fill="#ffb8b8"/><path d="M206.225 568.42a4.221 4.221 0 0 1-4.068-3.1c-1.85-6.719-6.66-18.078-14.3-33.764a27.967 27.967 0 0 1 15.883-38.612 27.955 27.955 0 0 1 35.921 17.808c5.921 18.562 5.635 38.447 5.238 46.133a4.239 4.239 0 0 1-3.321 3.914l-34.446 7.522a4.208 4.208 0 0 1-.907.098Z" transform="translate(-102.5 -101.16)" fill="#ff6584"/><path fill="#ffb8b8" d="M137.082 686.425h11.52l5.481-44.437-17.003.001.002 44.436z"/><path d="M237.113 784.293h36.208v13.989h-22.218a13.99 13.99 0 0 1-13.99-13.99Z" transform="rotate(179.997 203.968 740.706)" fill="#2f2e41"/><path fill="#ffb8b8" d="m21.882 671.495 10.096 5.55 26.212-36.298-14.899-8.192-21.409 38.94z"/><path d="M118.196 776.437h36.207v13.99h-22.218a13.99 13.99 0 0 1-13.99-13.99Z" transform="rotate(-151.199 72.062 746.011)" fill="#2f2e41"/><path d="M239.044 762.92a4.228 4.228 0 0 1-4.19-3.684L220.446 648.21a2.35 2.35 0 0 0-4.387-.832l-60.045 108.94a4.252 4.252 0 0 1-5.209 1.912l-13.088-4.987a4.228 4.228 0 0 1-2.411-5.545l41.595-102.18a3.257 3.257 0 0 0 .212-.81c5.634-43.606 19.969-65.78 24.228-71.538a3.275 3.275 0 0 0 .466-2.981l-.586-1.757a4.226 4.226 0 0 1 .814-4.113c15.346-17.48 42.095-7.941 42.363-7.843l.134.05.084.114c29.993 41.133 18.904 174.732 16.376 201.096a4.217 4.217 0 0 1-3.884 3.806l-17.736 1.365a4.42 4.42 0 0 1-.328.012Z" transform="translate(-102.5 -101.16)" fill="#2f2e41"/><path d="M291.606 488.437a9.892 9.892 0 0 0-.225 1.541l-40.367 23.288-9.812-5.649-10.46 13.694 16.398 11.688a7.518 7.518 0 0 0 9.02-.22l41.625-32.839a9.864 9.864 0 1 0-6.179-11.503Z" transform="translate(-102.5 -101.16)" fill="#ffb8b8"/><path d="m249.665 514.369-13.047 16.909a4.229 4.229 0 0 1-6.394.35l-14.77-15.337a11.744 11.744 0 0 1 14.403-18.554l18.525 10.359a4.229 4.229 0 0 1 1.283 6.273ZM199.098 543.746l-21.017-3.795a4.229 4.229 0 0 1-3.255-5.514l6.813-20.173a11.744 11.744 0 0 1 23.102 4.241l-.665 21.213a4.229 4.229 0 0 1-4.978 4.028Z" transform="translate(-102.5 -101.16)" fill="#ff6584"/><path d="M205.533 456.318c5.932 4.06 13.72 8.234 19.78 3.91a11.025 11.025 0 0 0 3.618-12.71c-2.901-8.295-10.872-11.948-18.494-14.747-9.909-3.64-20.698-6.535-30.927-3.929s-19.269 12.51-17.422 22.903c1.485 8.358 9.368 15.313 8.25 23.728-1.127 8.468-10.651 12.926-19.06 14.44s-17.816 2-23.86 8.039c-7.708 7.704-5.783 21.475 1.47 29.61s18.2 11.821 28.806 14.328c14.053 3.32 29.252 5.066 42.599-.446s23.733-20.348 19.866-34.26c-1.633-5.878-5.48-10.844-9.198-15.68s-7.483-9.89-8.901-15.823c-1.182-4.943-.307-10.683 2.971-14.391a4.17 4.17 0 0 0 .559-4.874Z" transform="translate(-102.5 -101.16)" fill="#2f2e41"/><path d="M293.5 798.84h-190a1 1 0 0 1 0-2h190a1 1 0 0 1 0 2Z" transform="translate(-102.5 -101.16)" fill="#ccc"/></svg>