<?xml version="1.0" encoding="utf-8"?>
<!-- Generator: Adobe Illustrator 24.0.1, SVG Export Plug-In . SVG Version: 6.00 Build 0)  -->
<svg version="1.1" id="b5c524f0-66c4-4225-a3aa-c25cef687e0c"
	 xmlns="http://www.w3.org/2000/svg" xmlns:xlink="http://www.w3.org/1999/xlink" x="0px" y="0px" viewBox="0 0 740.7 597.2"
	 style="enable-background:new 0 0 740.7 597.2;" xml:space="preserve">
<style type="text/css">
	.st0{fill:#3F3D56;}
	.st1{fill:#E6E6E6;}
	.st2{fill:#6C63FF;}
</style>
<path class="st0" d="M352.1,82c-37.8,0-68.8,30.1-70,67.8c0,0.7,0,1.4,0,2.1c0,38.7,31.3,70,70,70s70-31.3,70-70S390.8,82,352.1,82
	L352.1,82L352.1,82z M352.1,220c-37.5,0-68-30.5-68-68c0-0.9,0-1.9,0.1-2.8c1.5-37.5,33.2-66.7,70.7-65.2s66.7,33.2,65.2,70.7
	C418.6,191.2,388.6,220,352.1,220L352.1,220z"/>
<path class="st1" d="M411.1,152c0,32.6-26.4,59-59,59s-59-26.4-59-59c0-1.9,0.1-3.7,0.3-5.5c3.1-32.4,31.8-56.3,64.3-53.2
	C388,96.1,411.1,121.6,411.1,152z"/>
<path class="st2" d="M369.7,155.9c-1.4-1.9-3.3-3.4-5.5-4.3c-2.7-1.1-5.4-2-8.2-2.7v-16.1c4.3,0.7,8.4,2.5,11.7,5.3l3.3-7
	c-1.9-1.7-4-3-6.4-3.9c-2.6-1-5.3-1.7-8.1-2.1v-8.1H349v8.2c-2.9,0.3-5.7,1.3-8.3,2.8c-2.3,1.3-4.2,3.2-5.6,5.5
	c-1.3,2.2-2,4.7-2,7.3c-0.1,2.8,0.7,5.5,2.3,7.8c1.5,2,3.4,3.5,5.7,4.5c2.7,1.2,5.5,2.1,8.4,2.8v15.4c-5.1-0.4-9.9-2.3-13.9-5.5
	l-3.3,7c2.2,1.8,4.7,3.3,7.4,4.2c3,1.1,6.1,1.7,9.2,1.9v8.1h7.5v-8.2c4.2-0.5,8.1-2.3,11.2-5.1c2.7-2.6,4.3-6.3,4.2-10.1
	C372,160.8,371.3,158.1,369.7,155.9z M349.5,147.2c-1.8-0.6-3.5-1.5-5-2.7c-1.2-1.1-1.8-2.6-1.8-4.2c-0.1-1.8,0.6-3.5,1.8-4.8
	c1.4-1.4,3.1-2.3,5-2.6V147.2z M360.7,168.5c-1.3,1.3-2.9,2.2-4.7,2.5v-13.2c1.7,0.5,3.3,1.3,4.7,2.4c1.1,0.9,1.7,2.3,1.6,3.7
	C362.4,165.5,361.9,167.2,360.7,168.5L360.7,168.5z"/>
</svg>
