<?xml version="1.0" standalone="no"?>
<!DOCTYPE svg PUBLIC "-//W3C//DTD SVG 20010904//EN"
 "http://www.w3.org/TR/2001/REC-SVG-20010904/DTD/svg10.dtd">
<svg version="1.0" xmlns="http://www.w3.org/2000/svg"
 width="256.000000pt" height="256.000000pt" viewBox="0 0 256.000000 256.000000"
 preserveAspectRatio="xMidYMid meet">
<metadata>
Created by potrace 1.14, written by Peter Selinger 2001-2017
</metadata>
<g transform="translate(0.000000,256.000000) scale(0.100000,-0.100000)"
fill="#000000" stroke="none">
<path d="M1225 2046 c-40 -18 -1018 -833 -1027 -856 -7 -19 9 -45 64 -105 15
-16 28 -33 28 -37 0 -5 12 -8 28 -8 19 0 49 19 102 64 l75 64 6 -81 c3 -45 6
-222 7 -393 0 -272 2 -315 17 -337 9 -14 26 -28 38 -31 12 -3 342 -6 734 -6
l712 0 28 24 28 24 5 401 5 401 80 -65 c44 -36 90 -65 102 -65 27 0 123 112
123 143 -1 14 -18 36 -48 59 -26 21 -59 48 -73 60 -15 13 -63 52 -108 88 l-80
65 -1 285 c0 157 -4 292 -9 300 -8 11 -40 14 -153 16 -198 2 -188 10 -188
-167 l0 -140 -167 142 c-93 77 -182 147 -200 155 -40 17 -89 17 -128 0z m-198
-630 c26 -22 27 -29 27 -104 0 -57 -5 -86 -17 -105 -33 -50 -127 -44 -148 10
-28 70 -3 205 39 216 41 11 73 5 99 -17z m475 -40 l31 -64 29 61 c35 73 33 71
52 64 12 -5 7 -21 -25 -83 -31 -62 -39 -89 -39 -132 0 -46 -3 -53 -17 -50 -14
3 -18 14 -19 58 -1 42 -10 72 -38 125 -41 79 -42 85 -21 85 9 0 29 -28 47 -64z
m118 -297 c131 -61 199 -164 202 -304 2 -129 -66 -240 -187 -304 l-50 -26
-290 0 -290 0 -56 28 c-66 32 -132 99 -162 165 -17 37 -22 66 -22 137 0 84 2
94 35 154 41 76 112 134 197 161 51 16 90 18 313 17 251 -2 256 -3 310 -28z"/>
<path d="M926 1382 c-18 -34 -16 -143 3 -166 20 -24 58 -20 76 8 21 32 22 129
1 161 -23 35 -61 33 -80 -3z"/>
<path d="M1440 1030 c-181 -33 -271 -251 -167 -405 28 -41 54 -62 112 -91 167
-81 370 50 367 237 -2 169 -146 289 -312 259z"/>
</g>
</svg>
