<?xml version="1.0" standalone="no"?>
<!DOCTYPE svg PUBLIC "-//W3C//DTD SVG 20010904//EN"
 "http://www.w3.org/TR/2001/REC-SVG-20010904/DTD/svg10.dtd">
<svg version="1.0" xmlns="http://www.w3.org/2000/svg"
 width="694.000000pt" height="694.000000pt" viewBox="0 0 694.000000 694.000000"
 preserveAspectRatio="xMidYMid meet">
<metadata>
Created by potrace 1.14, written by Peter Selinger 2001-2017
</metadata>
<g transform="translate(0.000000,694.000000) scale(0.100000,-0.100000)"
fill="#000000" stroke="none">
<path d="M5059 6246 c-2 -2 -31 -6 -64 -9 -73 -8 -129 -23 -143 -40 -20 -24
-24 -87 -27 -467 -4 -366 -7 -455 -19 -467 -9 -10 -51 6 -94 34 -49 33 -150
125 -307 278 -125 122 -291 277 -345 321 -19 16 -37 31 -40 34 -3 3 -27 24
-55 45 -27 22 -52 43 -55 46 -3 3 -43 30 -90 61 -187 122 -266 153 -395 152
-120 -1 -144 -6 -223 -49 -77 -43 -275 -174 -280 -187 -2 -4 -8 -8 -13 -8 -11
0 -443 -326 -544 -411 -25 -22 -141 -115 -186 -151 -19 -14 -45 -36 -59 -48
-14 -12 -40 -34 -59 -48 -36 -28 -99 -80 -117 -97 -6 -5 -28 -23 -49 -40 -35
-28 -53 -43 -115 -95 -14 -12 -47 -40 -74 -63 -141 -119 -278 -236 -331 -282
-33 -29 -82 -72 -110 -95 -41 -34 -142 -124 -199 -175 -6 -6 -42 -37 -81 -70
-38 -33 -76 -67 -85 -75 -9 -8 -51 -46 -94 -85 -437 -392 -766 -714 -798 -781
-19 -41 38 -206 109 -311 70 -105 191 -193 246 -179 36 9 129 84 265 214 42
41 106 99 141 130 35 31 75 67 89 80 30 26 57 28 67 5 3 -10 9 -52 13 -93 9
-95 7 -990 -3 -1605 -4 -259 -8 -551 -8 -650 0 -174 1 -182 26 -235 35 -73 54
-93 115 -124 l51 -26 2314 4 c2178 4 2316 5 2348 22 66 34 118 80 141 125 24
45 24 50 22 280 -1 129 -5 365 -9 524 -3 160 -8 390 -10 512 -1 122 -6 226 -9
232 -4 5 -2 12 3 16 6 3 7 16 3 28 -8 24 -7 687 1 838 7 110 14 149 31 149 6
0 27 -10 46 -21 40 -25 183 -140 188 -151 2 -5 10 -8 18 -8 8 0 14 -4 14 -8 0
-5 18 -21 41 -38 23 -16 49 -36 58 -44 24 -21 75 -57 151 -107 53 -35 71 -42
94 -37 17 4 35 12 42 18 6 6 22 18 35 26 20 13 159 150 184 182 62 77 115 187
115 238 0 27 -16 58 -45 84 -69 64 -100 89 -195 165 -58 45 -112 88 -120 94
-8 7 -55 44 -105 82 -85 66 -100 78 -145 115 -10 8 -28 22 -40 30 -12 8 -32
23 -43 33 -12 11 -39 33 -61 50 -135 111 -234 212 -244 251 -9 32 -8 207 3
676 15 683 13 1147 -8 1166 -4 4 -71 14 -127 20 -30 2 -71 7 -90 10 -40 6
-655 15 -661 10z"/>
</g>
</svg>
